<svg width="56" height="64" viewBox="0 0 56 64" fill="none" xmlns="http://www.w3.org/2000/svg">
<path d="M0 4C0 1.79086 1.79086 0 4 0H52C54.2091 0 56 1.79086 56 4V47.2773C56 48.7519 55.1887 50.1069 53.8889 50.8032L30.3611 63.4074C29.6236 63.8025 28.8118 64 28 64C27.1882 64 26.3764 63.8025 25.6389 63.4074L2.11112 50.8032C0.811295 50.1069 0 48.7519 0 47.2773V4Z" fill="url(#paint0_linear)"/>
<path d="M35.5 19.0076H20.5C20.1022 19.0076 19.7206 19.1656 19.4393 19.4469C19.158 19.7282 19 20.1097 19 20.5076V35.5076C19 35.9054 19.158 36.2869 19.4393 36.5682C19.7206 36.8495 20.1022 37.0076 20.5 37.0076H35.5C35.8978 37.0076 36.2794 36.8495 36.5607 36.5682C36.842 36.2869 37 35.9054 37 35.5076V20.5076C37 20.1097 36.842 19.7282 36.5607 19.4469C36.2794 19.1656 35.8978 19.0076 35.5 19.0076ZM35.5 20.5076V23.5076H20.5V20.5076H35.5ZM20.5 35.5076V25.0076H35.5V35.5076H20.5Z" fill="white"/>
<path d="M24.0701 28.135L26.1851 30.2575L24.0701 32.38L25.1276 33.4375L28.3076 30.2575L25.1276 27.0775L24.0701 28.135Z" fill="white"/>
<defs>
<linearGradient id="paint0_linear" x1="0" y1="0" x2="63.4336" y2="55.5044" gradientUnits="userSpaceOnUse">
<stop stop-color="#4D3BF9"/>
<stop offset="1" stop-color="#746EA1"/>
</linearGradient>
</defs>
</svg>
